# xmcd
#
# Track frame offsets:
#	150
#	20610
#	36500
#	50545
#	82355
#	94085
#	117347
#	132565
#	147815
#	171330
#	186830
#	200060
#	218620
#	234730
#	272820
#	287635
#
# Disc length: 3982 seconds
#
# Revision: 9
# Processed by: cddbd v1.5.2PL0 Copyright (c) Steve Scherf et al.
# Submitted via: audiograbber 1.83.01
#
DISCID=000f8c10
DTITLE=B.B. King - The Ultimate Collection
DYEAR=1997
DGENRE=Blues
TTITLE0=Hummingbird
TTITLE1=Ain't Nobody Home
TTITLE2=Ask Me No Questions
TTITLE3=Sweet Sixteen
TTITLE4=Never Trust A Woman
TTITLE5=Don't Answer The Door
TTITLE6=Chains And Things
TTITLE7=Philadelphia
TTITLE8=Ghetto Woman
TTITLE9=Help The Poor
TTITLE10=I Got Some Help I Don't Need
TTITLE11=Guess Who
TTITLE12=Who Are You
TTITLE13=To Know You Is To Love You
TTITLE14=I Like To Live The Love
TTITLE15=How Blue Can You Get
EXTD=
EXTT0=
EXTT1=
EXTT2=
EXTT3=
EXTT4=
EXTT5=
EXTT6=
EXTT7=
EXTT8=
EXTT9=
EXTT10=
EXTT11=
EXTT12=
EXTT13=
EXTT14=
EXTT15=
PLAYORDER=
